<svg version="1.2" baseProfile="tiny" viewBox="0 0 24 24" xmlns:xlink="http://www.w3.org/1999/xlink" xmlns="http://www.w3.org/2000/svg">
<path style="fill:#ffffff;" d="M21.9,3.2c-3-2.8-7.6-1.8-9.9,1.4c-5.1-6.8-14.8-1-11.2,6.6h6.5c0.7-0.1,1,1.5,1.2,1.9L10,7
		c0.2-0.7,1.3-0.7,1.4,0c0,0,1.4,7.6,1.4,7.6l1.2-3.1c0.2-0.7,1.8-0.4,2.3-0.4c0.3-0.3,0.7-0.5,1.2-0.6c0.8,0,1.4,0.6,1.4,1.4
		c0,1.6-2.3,2-2.8,0.5h-1l-2,5c-0.1,0.3-0.4,0.5-0.7,0.4c-0.3,0-0.6-0.3-0.6-0.6l-1.3-6.9l-1.2,5C9.3,15.8,9,16,8.7,16l-0.2,0
		c-0.5,0.1-1.5-3.1-1.7-3.5h-5c0.1,0.2,9,9.3,9.2,9.5c0.6,0.6,1.5,0.6,2.1,0c0,0,9.1-9.4,9.1-9.4C24.7,10,24.6,5.7,21.9,3.2
		L21.9,3.2z"/>
</svg>