<svg version="1.2" baseProfile="tiny" viewBox="0 0 24 24" xmlns:xlink="http://www.w3.org/1999/xlink" xmlns="http://www.w3.org/2000/svg">
<path style="fill:#ffffff;" d="M13.4,11.1h1.2c0.5-0.1,0.8,0.6,0.5,0.9c-0.4,0.4-1.2,0.1-1.6,0.2c-0.5-0.1-1.2,0.2-1.6-0.3
		c-0.2-0.8,0.8-1.6,1.1-2.3l0,0l0.5-0.7c0,0,0.1-0.1,0.1-0.1h-0.6l0,0c-0.6,0.1-1.2-0.4-0.8-1c0.4-0.3,0.9-0.1,1.5-0.2
		c3.1-0.3,0.4,2.1-0.2,3.3C13.5,11,13.4,11.1,13.4,11.1z M19,9.9h-0.7C18.5,9.2,20.4,7.3,19,7c-0.6,0.1-2-0.4-2.1,0.6
		c0,0.6,0.7,0.6,1.1,0.6v0c-0.3,0.6-0.8,1.4-1.2,2c-0.3,0.4,0,0.9,0.5,0.9c0.7-0.1,1.5,0.2,2.1-0.2C19.7,10.5,19.4,9.9,19,9.9z
		 M10.1,13.2H7.8c0-0.1,0.1-0.1,0.1-0.2c0.8-1.1,1.8-2.4,2.6-3.5c0.4-0.4,0.1-1-0.5-1H7.8v0H7c-0.8,0-0.7,1.2,0.1,1.1h1.8
		c0,0-0.1,0.1-0.1,0.1l0,0C8,11,7.1,12.2,6.2,13.4c-0.3,0.4,0,1,0.5,0.9c0,0,3.7,0,3.6,0C10.8,14.1,10.7,13.2,10.1,13.2z M22.1,12.7
		c0,0-9.1,9.4-9.1,9.4c-0.6,0.6-1.5,0.5-2.1,0c0,0-9.1-9.4-9.1-9.4C-4.3,5.4,6-3.2,12,4.5c2.4-3.2,6.9-4.2,9.9-1.4c0,0,0,0,0,0
		C24.6,5.7,24.7,10,22.1,12.7z M14,4.7L12.7,6c-0.4,0.4-1,0.4-1.4,0c0,0-1.4-1.4-1.4-1.4C8.3,2.7,5.1,2.5,3.2,4.3c0,0,0,0,0,0
		C1.1,6.2,1,9.5,3,11.6l9,9.3l9-9.3h0c0,0,0,0,0,0C25.5,6.8,18.7-0.2,14,4.7z"/>
</svg>