<svg version="1.2" baseProfile="tiny" viewBox="0 0 24 24" xmlns:xlink="http://www.w3.org/1999/xlink" xmlns="http://www.w3.org/2000/svg">
<path style="fill:#ffffff;" d="M12,22.5c-0.4,0-0.7-0.1-1-0.4c0,0-9.1-9.4-9.1-9.4C-4.3,5.4,6-3.2,12,4.5
		c6-7.7,16.3,0.9,10.1,8.2c-0.1,0-9.1,9.4-9.1,9.4C12.7,22.3,12.4,22.5,12,22.5z M8,8.6H7.2c-0.8,0-0.7,1.2,0.1,1.1h1.8
		c0,0-0.1,0.1-0.1,0.1l0,0c-0.8,1.1-1.8,2.4-2.6,3.5c-0.3,0.4,0,1,0.5,0.9c0,0,3.7,0,3.6,0c0.6-0.2,0.4-1.1-0.2-1.1c0,0-2.3,0-2.3,0
		C8,13.1,8,13.1,8,13c0.8-1.1,1.8-2.4,2.6-3.5c0.4-0.4,0.1-1-0.5-1L8,8.6L8,8.6z M13.1,8.8h0.6c0,0-0.1,0.1-0.1,0.1l-0.5,0.7l0,0
		c-0.3,0.7-1.4,1.4-1.1,2.3c0.3,0.5,1.1,0.2,1.6,0.3c0.4-0.1,1.2,0.2,1.6-0.2c0.3-0.4,0-1-0.5-0.9h-1.2c0.1-0.1,0.4-0.7,0.5-0.8
		c0.3-0.7,2.2-2.3,0.8-2.7c-0.8,0.1-1.8-0.2-2.5,0.2C11.9,8.4,12.5,8.9,13.1,8.8L13.1,8.8z M18.1,8.2L18.1,8.2
		c-0.2,0.4-1.1,1.9-1.2,2c-0.3,0.4,0,0.9,0.5,0.9c0.2-0.1,1.7,0.2,2.1-0.2c0.4-0.3,0-1-0.4-0.9h-0.7c0-0.1,0.8-1.4,1.2-2
		c0.2-0.4,0-0.9-0.5-0.9c-0.3,0-1.3,0-1.5,0c-0.7,0-0.7,1.1,0,1.1C17.6,8.2,18.1,8.2,18.1,8.2L18.1,8.2z"/>
</svg>