<svg version="1.2" baseProfile="tiny" viewBox="0 0 24 24" xmlns:xlink="http://www.w3.org/1999/xlink" xmlns="http://www.w3.org/2000/svg">
<path style="fill:#ffffff;" d="M11.8,13.9c0.2,0.1,0.2,0.4,0,0.6c0,0-2.8,2.4-2.8,2.4c-0.9,0.5-0.6-1.3-0.6-1.7c-2.4,0-4.5,0.3-4.5,2.7
		c0,0.7-0.9,0.8-0.9,0C3,15.4,3.5,13,8.4,13c0.1-0.4-0.3-2.1,0.6-1.5L11.8,13.9z M21.3,10.3c-0.1-0.2-0.2-0.4-0.4-0.5v0
		c-0.2-0.2-0.5-0.3-0.8-0.3c-0.4,0-0.8,0.2-1.1,0.5c-0.5,0.1-2-0.3-2.2,0.4c0,0-1.2,2.9-1.2,2.9l-1.3-7.2c-0.1-0.7-1.1-0.7-1.3,0
		c0,0-1.3,5.2-1.3,5.2l1.2,0.4l0.6-2.4l1.2,6.4c0.1,0.3,0.3,0.5,0.6,0.5c0.3,0,0.6-0.1,0.7-0.4c0,0,1.8-4.7,1.8-4.7h1
		C19.4,13.1,22,12,21.3,10.3z"/>
</svg>