<svg version="1.2" baseProfile="tiny" viewBox="0 0 9.44 14.0" xmlns:xlink="http://www.w3.org/1999/xlink" xmlns="http://www.w3.org/2000/svg">
<path style="fill:#ffffff;" d="M3.029,12.883H0.369C0.165,12.883,0,12.717,0,12.513V1.487c0-0.204,0.165-0.369,0.369-0.369
		h2.659c0.204,0,0.369,0.165,0.369,0.369v11.026C3.398,12.717,3.233,12.883,3.029,12.883z M0.739,12.144h1.921V1.856H0.739V12.144z
		 M9.071,12.883H6.411c-0.204,0-0.369-0.165-0.369-0.369V1.487c0-0.204,0.165-0.369,0.369-0.369h2.659
		c0.204,0,0.369,0.165,0.369,0.369v11.026C9.44,12.717,9.275,12.883,9.071,12.883z M6.781,12.144h1.921V1.856H6.781V12.144z"/>
</svg>