<svg version="1.2" baseProfile="tiny" viewBox="0 0 14.0 13.976" xmlns:xlink="http://www.w3.org/1999/xlink" xmlns="http://www.w3.org/2000/svg">
<path style="fill:#ffffff;" d="M8.479,0.874c0.302,0,0.597,0.036,0.884,0.108L7.566,3.363c-0.14,0.185-0.2,0.418-0.168,0.647
		C7.43,4.24,7.552,4.447,7.737,4.587l0.934,0.705C8.828,5.41,9.013,5.468,9.196,5.468c0.265,0,0.526-0.12,0.698-0.347l1.777-2.355
		c0.688,1.244,0.598,2.791-0.287,3.964c-0.698,0.925-1.761,1.456-2.915,1.456c-0.337,0-0.673-0.047-0.999-0.139
		C7.391,8.024,7.311,8.013,7.232,8.013c-0.27,0-0.53,0.125-0.697,0.347l-3.401,4.508c-0.112,0.149-0.285,0.234-0.474,0.234
		c-0.09,0-0.224-0.021-0.353-0.118l-0.199-0.15c-0.127-0.096-0.206-0.23-0.228-0.39c-0.022-0.159,0.016-0.311,0.112-0.437
		l3.377-4.476c0.222-0.294,0.235-0.695,0.034-1.003C4.563,5.24,4.62,3.55,5.545,2.324C6.231,1.416,7.327,0.874,8.479,0.874
		 M12.118,2.173h0.003H12.118 M8.479,0C7.088,0,5.723,0.638,4.848,1.798C3.701,3.318,3.64,5.424,4.672,7.005l-3.377,4.476
		c-0.235,0.311-0.334,0.696-0.28,1.085c0.054,0.388,0.256,0.731,0.567,0.966l0.199,0.15c0.263,0.199,0.573,0.295,0.88,0.295
		c0,0,0,0,0,0c0.444,0,0.883-0.201,1.17-0.582l3.401-4.508c0.409,0.116,0.825,0.172,1.237,0.172c1.392,0,2.737-0.644,3.612-1.803
		c1.273-1.687,1.219-3.998-0.13-5.622c-0.065-0.078-0.161-0.122-0.262-0.122c-0.002,0-0.004,0-0.005,0
		c-0.103,0.002-0.2,0.052-0.262,0.134L9.197,4.594L8.263,3.889l2.235-2.962c0.061-0.081,0.083-0.186,0.058-0.285
		c-0.025-0.099-0.093-0.182-0.185-0.225C9.765,0.135,9.119,0,8.479,0L8.479,0z"/>
</svg>