<svg version="1.2" baseProfile="tiny" viewBox="0 0 116.93 94.353" xmlns:xlink="http://www.w3.org/1999/xlink" xmlns="http://www.w3.org/2000/svg">
<path style="fill:#ffffff;" d="M62.6967,57.5629L65.8269,57.5629L65.8269,75.1418L63.5854,75.1418L63.5854,60.4293L58.4767,75.1418L56.3778,75.1418L51.2937,60.1783L51.2937,75.1418L49.0521,75.1418L49.0521,57.5629L52.553,57.5629L56.7146,70.0099C57.0981,71.1686,57.3776,72.0357,57.5541,72.6122C57.7529,71.9725,58.0663,71.0327,58.4896,69.7939L62.6967,57.5629M112.9392,12.816L112.9392,47.2624C112.9392,47.8143,112.4925,48.2616,111.9394,48.2616L83.6985,48.2616L83.6985,48.2616C83.4997,49.59,82.9069,50.8676,81.9165,51.9092C84.4691,56.1287,85.9389,61.0719,85.9389,66.3528C85.9389,81.7918,73.3783,94.353,57.9388,94.353C42.5005,94.353,29.9376,81.7918,29.9376,66.3528C29.9376,61.0728,31.4086,56.1297,33.96,51.9102C32.9696,50.8676,32.3756,49.5891,32.178,48.2606L4.1592,48.2606L4.1592,48.2606C3.6061,48.2606,3.1594,47.8134,3.1594,47.2614L3.1594,12.816C3.1594,12.264,3.6061,11.8158,4.1592,11.8158C4.7123,11.8158,5.159,12.264,5.159,12.816L5.159,46.2603L32.1791,46.2603C32.3849,44.8799,33.0105,43.5496,34.0746,42.4872C36.6704,39.8906,40.8507,39.8594,43.4956,42.3739C45.8588,40.9464,48.4488,39.8594,51.1978,39.1772C51.2832,35.8702,53.7445,33.1613,56.9391,32.6839L56.9391,12.816C56.9391,12.264,57.3857,11.8158,57.9388,11.8158C58.4919,11.8158,58.9386,12.264,58.9386,12.816L58.9386,32.6848C62.1354,33.1613,64.5945,35.8721,64.6798,39.1782C67.4288,39.8604,70.02,40.9464,72.382,42.3749C75.0258,39.8604,79.2072,39.8943,81.8042,42.4881C82.8671,43.5515,83.4927,44.8818,83.6997,46.2622L110.9397,46.2622L110.9397,12.816C110.9397,12.264,111.3875,11.8158,111.9394,11.8158C112.4925,11.8158,112.9392,12.264,112.9392,12.816M83.9394,66.3528C83.9394,61.5351,82.6169,57.0213,80.3239,53.1481C77.7526,54.5879,74.4435,54.2209,72.2569,52.0338C70.0715,49.8467,69.7043,46.5377,71.1437,43.9666C69.0729,42.74,66.8208,41.7889,64.4331,41.1728C63.638,44.0157,61.0363,46.1028,57.9388,46.1037C54.8425,46.1028,52.2396,44.0157,51.4445,41.1738C49.0568,41.7899,46.8047,42.7419,44.7339,43.9694C46.1721,46.5396,45.8062,49.8476,43.6207,52.0347C41.4341,54.2199,38.1262,54.587,35.5549,53.149C33.2619,57.0222,31.9394,61.5351,31.9394,66.3537C31.9394,80.6907,43.6044,92.3537,57.9412,92.3537C72.2744,92.3527,83.9394,80.6888,83.9394,66.3528M2.1234,6.4688L2.1234,0.7869L0.0,0.7869L0.0,0.7869L0.0,0.0274L5.1063,0.0274L5.1063,0.7869L2.9747,0.7869L2.9747,6.4688L2.9747,6.4688L2.1234,6.4688L2.1234,6.4688M8.6411,6.4688L7.8495,6.4688L7.8495,6.4688L7.8495,1.4276C7.6577,1.6097,7.4087,1.7918,7.1,1.9729C6.7913,2.155,6.5142,2.2909,6.2674,2.3824L6.2674,1.6172C6.7094,1.4087,7.0965,1.1568,7.4286,0.8614C7.7583,0.5652,7.9922,0.2783,8.1313,0.0L8.6411,0.0L8.6411,6.4688M55.2693,6.4688L55.2693,0.7869L53.1459,0.7869L53.1459,0.0274L58.2522,0.0274L58.2522,0.7869L56.1206,0.7869L56.1206,6.4688L56.1206,6.4688L55.2693,6.4688L55.2693,6.4688M63.8637,5.7084L63.8637,6.4679L59.6051,6.4679C59.5992,6.2782,59.6285,6.0943,59.6974,5.9188C59.805,5.6291,59.9792,5.3432,60.2189,5.062C60.4575,4.7809,60.8024,4.4563,61.2526,4.0864C61.953,3.5118,62.4266,3.057,62.6733,2.7221C62.9189,2.3871,63.0416,2.0692,63.0416,1.7701C63.0416,1.4568,62.9306,1.1917,62.7061,0.9766C62.4815,0.7624,62.1892,0.6539,61.8291,0.6539C61.4479,0.6539,61.1427,0.768,60.9147,0.9973C60.6867,1.2256,60.5697,1.5417,60.5674,1.9456L59.7536,1.8635C59.8097,1.2568,60.019,0.7954,60.3826,0.4755C60.7463,0.1595,61.2339,0.0,61.8466,0.0C62.4652,0.0,62.9539,0.1708,63.3153,0.5142C63.6766,0.8567,63.8555,1.2823,63.8555,1.788C63.8555,2.0456,63.8017,2.2994,63.6964,2.5475C63.5924,2.7966,63.417,3.0589,63.1726,3.3354C62.9282,3.6099,62.5225,3.9883,61.953,4.4686C61.4783,4.8667,61.1743,5.1385,61.0386,5.28C60.9042,5.4225,60.7931,5.5649,60.7054,5.7084L63.8637,5.7084L63.8637,5.7084M108.269,6.4688L108.269,0.7869L106.1455,0.7869L106.1455,0.0274L111.2519,0.0274L111.2519,0.7869L109.1202,0.7869L109.1202,6.4688L108.269,6.4688L108.269,6.4688M112.7112,4.7677L113.5016,4.6629C113.5928,5.1111,113.7472,5.4338,113.9658,5.6319C114.1845,5.8291,114.4487,5.9282,114.7633,5.9282C115.1351,5.9282,115.4497,5.7989,115.7057,5.5414C115.9618,5.2828,116.0904,4.9639,116.0904,4.5827C116.0904,4.2204,115.9723,3.9204,115.735,3.6835C115.4976,3.4486,115.1959,3.3297,114.8299,3.3297C114.6814,3.3297,114.4944,3.359,114.271,3.4184L114.3587,2.724C114.4125,2.7296,114.4546,2.7334,114.4873,2.7334C114.8241,2.7334,115.1269,2.6447,115.3959,2.4692C115.6648,2.2928,115.8005,2.022,115.8005,1.6559C115.8005,1.3662,115.7022,1.1256,115.5058,0.935C115.3105,0.7444,115.0556,0.6491,114.7446,0.6491C114.4382,0.6491,114.1821,0.7463,113.9763,0.9388C113.7706,1.1322,113.6384,1.4219,113.58,1.8087L112.7895,1.67C112.8866,1.1398,113.1064,0.7293,113.449,0.4378C113.7916,0.1472,114.2184,0.0,114.7282,0.0C115.0802,0.0,115.4041,0.0764,115.6999,0.2274C115.9957,0.3784,116.2226,0.5831,116.3793,0.8445C116.5359,1.1049,116.6143,1.3823,116.6143,1.6748C116.6143,1.9531,116.5395,2.2069,116.3898,2.4353C116.2401,2.6636,116.0191,2.8447,115.7256,2.9797C116.1068,3.0684,116.4026,3.2514,116.6143,3.5269C116.8248,3.8043,116.93,4.1506,116.93,4.5667C116.93,5.13,116.7254,5.6074,116.3149,5.9971C115.9045,6.3886,115.3865,6.584,114.7586,6.584C114.1938,6.584,113.7238,6.416,113.3508,6.0792C112.9766,5.7414,112.7638,5.3036,112.7112,4.7677Z"/>
</svg>