<svg version="1.2" baseProfile="tiny" viewBox="0 0 151.041 151.033" xmlns:xlink="http://www.w3.org/1999/xlink" xmlns="http://www.w3.org/2000/svg">
<path style="fill:#ffffff;" d="M107.4883,3.5009C106.6652,2.6778,105.0384,2.0042,103.8739,2.0042L47.1973,1.9906C46.0313,1.9906,44.4045,2.6642,43.5814,3.4874L3.4996,43.5534C2.6749,44.3765,1.9998,46.0047,1.9998,47.1691L1.9907,103.8397C1.9907,105.0042,2.6644,106.6308,3.4875,107.4524L43.5496,147.5396C44.3713,148.3627,45.998,149.0363,47.1626,149.0363L103.8392,149.0484C105.0037,149.0484,106.6304,148.3748,107.4536,147.5517L147.5399,107.4887C148.363,106.6656,149.0367,105.0389,149.0367,103.8745L149.0488,47.1978C149.0488,46.0333,148.3766,44.4067,147.5535,43.5836L107.4883,3.5009Z"/>
</svg>