<svg version="1.2" baseProfile="tiny" viewBox="0 0 151.041 151.033" xmlns:xlink="http://www.w3.org/1999/xlink" xmlns="http://www.w3.org/2000/svg">
<path style="fill:#ffffff;stroke:#231f20;stroke-width:4;" d="M47.5477,150.0226C45.8606,150.0226,43.7747,149.1587,42.5815,147.9655L3.0586,108.4251C1.8654,107.2304,0.9999,105.1446,0.9999,103.4606L1.0105,47.5542C1.0105,45.8672,1.8774,43.7799,3.0707,42.5868L42.6102,3.0569C43.8034,1.8637,45.8908,0.9998,47.5734,0.9998L103.4963,1.0195C105.185,1.0195,107.2723,1.8804,108.4595,3.069L147.9824,42.62C149.1545,43.7905,150.0411,45.9216,150.0411,47.5724L150.029,103.4908C150.029,105.1749,149.1636,107.2621,147.9718,108.4538L108.4187,147.9867C107.2316,149.1723,105.1457,150.0347,103.454,150.0347L47.5477,150.0226Z"/>
</svg>