<svg version="1.2" baseProfile="tiny" viewBox="0 0 22.221 34.177" xmlns:xlink="http://www.w3.org/1999/xlink" xmlns="http://www.w3.org/2000/svg">
<path style="fill:#ffffff;" d="M11.1101,5.619L20.6171,5.619C20.6171,5.619,20.748,5.619,20.88,5.619C21.0111,5.619,21.09,5.619,21.09,5.4881C21.09,5.3569,20.932,5.3039,20.932,5.0421C20.932,4.779,20.932,1.6299,20.932,1.3681C20.932,1.1049,20.8271,1.0,20.4071,1.0C19.9869,1.0,11.1101,1.0,11.1101,1.0C11.1101,1.0,2.233,1.0,1.813,1.0C1.393,1.0,1.289,1.1049,1.289,1.3681C1.289,1.6299,1.289,4.78,1.289,5.0421C1.289,5.3039,1.131,5.3569,1.131,5.4881C1.131,5.619,1.2099,5.619,1.341,5.619C1.473,5.619,1.6039,5.619,1.6039,5.619L11.1101,5.619L11.1101,5.619Z"/>
</svg>