<svg version="1.2" baseProfile="tiny" viewBox="0 0 19.221 31.468" xmlns:xlink="http://www.w3.org/1999/xlink" xmlns="http://www.w3.org/2000/svg">
<path style="fill:#ffffff;" d="M2.335,31.468c-0.508,0-0.508,0-1.035-0.481C0.665,30.406,0,29.364,0,28.661   c0-0.534,0.069-0.707,0.12-0.834c0.04-0.1,0.09-0.225,0.09-0.399V8.005c0-0.26-0.08-0.407-0.167-0.526C0.032,7.462,0,7.384,0,7.087   C0,6.882,0.084,6.431,0.64,5.7c0.339-0.141,0.357-0.46,0.357-0.529V0.001L18.224,0v5.171c0,0.069,0.019,0.393,0.359,0.53   c0.559,0.757,0.638,1.187,0.638,1.386c0,0.297-0.032,0.375-0.033,0.379c-0.097,0.133-0.177,0.279-0.177,0.54v19.422   c0,0.175,0.05,0.3,0.09,0.399c0.051,0.127,0.12,0.3,0.12,0.834c0,0.703-0.665,1.745-1.28,2.308   c-0.547,0.499-0.547,0.499-1.055,0.499H2.335z"/>
</svg>