<svg version="1.2" baseProfile="tiny" viewBox="0 0 22.221 34.177" xmlns:xlink="http://www.w3.org/1999/xlink" xmlns="http://www.w3.org/2000/svg">
<path style="fill:#ffffff;" d="M11.1101,33.177C11.1101,33.177,17.677,33.177,18.385,33.177C19.0941,33.177,19.1729,33.098,19.7769,32.5471C20.3811,31.9962,21.2199,30.815,21.2199,29.87C21.2199,28.925,21.01,28.872,21.01,28.6369C21.01,28.4011,21.01,9.5559,21.01,9.2151C21.01,8.8741,21.2199,9.1099,21.2199,8.2971C21.2199,7.4841,20.46,6.59,20.4071,6.5121C20.354,6.4342,20.2231,6.4861,20.2231,6.3808C20.2231,6.2759,20.2231,5.6201,20.2231,5.6201C20.2231,5.4892,20.4331,5.699,20.4331,5.4099C20.4331,5.1211,20.2231,5.3309,20.2231,5.1741C20.2231,5.0168,20.2231,2.7072,20.2231,2.524C20.2231,2.3401,20.4851,2.5499,20.4851,2.2612C20.4851,1.972,20.2231,2.2089,20.2231,2.038C20.2231,1.8681,20.2231,1.526,20.2231,1.3691C20.2231,1.2109,20.158,1.2109,19.948,1.2109C19.738,1.2109,11.0841,1.2109,11.0841,1.2109L11.1369,1.2109C11.1369,1.2109,2.483,1.2109,2.273,1.2109C2.063,1.2109,1.9979,1.2109,1.9979,1.3691C1.9979,1.526,1.9979,1.8681,1.9979,2.038C1.9979,2.2089,1.7359,1.973,1.7359,2.2612C1.7359,2.5489,1.9979,2.3401,1.9979,2.524C1.9979,2.7078,1.9979,5.0168,1.9979,5.1741C1.9979,5.332,1.7879,5.1221,1.7879,5.4099C1.7879,5.698,1.9979,5.4892,1.9979,5.6201C1.9979,5.6201,1.9979,6.2759,1.9979,6.3808C1.9979,6.4861,1.8659,6.4331,1.813,6.5121C1.7599,6.591,0.9999,7.4831,0.9999,8.2961C0.9999,9.1089,1.2099,8.873,1.2099,9.2141C1.2099,9.5549,1.2099,28.4001,1.2099,28.6359C1.2099,28.871,0.9999,28.924,0.9999,29.869C0.9999,30.813,1.8399,31.9951,2.443,32.5461C3.0461,33.097,3.1261,33.176,3.8349,33.176C4.5431,33.177,11.1101,33.177,11.1101,33.177Z"/>
</svg>