<svg version="1.2" baseProfile="tiny" id="EdgeSVG_76DVz" x="0px" y="0px" width="22.221px" height="34.177px" viewBox="0 0 22.221 34.177" xmlns:xlink="http://www.w3.org/1999/xlink" xmlns="http://www.w3.org/2000/svg">
  <linearGradient id="SVGID_1_" gradientUnits="userSpaceOnUse" x1="-0.6924" y1="17.1938" x2="22.9122" y2="17.1938">
    <stop offset="0" style="stop-color:#000000;stop-opacity:0.5"/>
    <stop offset="1" style="stop-color:#000000;stop-opacity:0.5"/>
  </linearGradient>
  <path fill="url(#SVGID_1_)" d="M22.011,9.379c0.149-0.28,0.21-0.605,0.21-1.083c0-0.573-0.228-1.2-0.651-1.86&#xD;&#xA;&#x9;&#x9;c-0.09-0.139-0.177-0.278-0.285-0.421c0.094-0.167,0.149-0.37,0.149-0.606c0-0.269-0.076-0.51-0.21-0.702V3.021&#xD;&#xA;&#x9;&#x9;c0.166-0.201,0.262-0.464,0.262-0.762c0-0.292-0.095-0.552-0.262-0.751V1.368c0-0.193-0.062-1.158-1.275-1.158H2.272&#xD;&#xA;&#x9;&#x9;c-1.214,0-1.275,0.964-1.275,1.158v0.133c-0.165,0.2-0.262,0.463-0.262,0.759c0,0.297,0.096,0.56,0.262,0.761v1.687&#xD;&#xA;&#x9;&#x9;c-0.134,0.192-0.21,0.433-0.21,0.702c0,0.236,0.056,0.438,0.148,0.605C0.827,6.157,0.741,6.296,0.651,6.436&#xD;&#xA;&#x9;&#x9;C0.227,7.099,0,7.724,0,8.296c0,0.475,0.06,0.799,0.21,1.082v19.145C0.105,28.792,0,29.151,0,29.871&#xD;&#xA;&#x9;&#x9;c0,1.425,1.157,2.856,1.788,3.433c0.682,0.622,0.999,0.874,2.047,0.874h14.551c1.048,0,1.365-0.252,2.065-0.892&#xD;&#xA;&#x9;&#x9;c0.612-0.559,1.77-1.99,1.77-3.415c0-0.697-0.099-1.055-0.21-1.347V9.379z"/>
</svg>