<svg version="1.2" baseProfile="tiny" id="EdgeSVG_76DVz" x="0px" y="0px" width="22.221px" height="34.177px" viewBox="0 0 22.221 34.177" xmlns:xlink="http://www.w3.org/1999/xlink" xmlns="http://www.w3.org/2000/svg">
  <linearGradient id="SVGID_3_" gradientUnits="userSpaceOnUse" x1="1" y1="17.1938" x2="21.2207" y2="17.1938">
    <stop offset="0" style="stop-color:#000000;stop-opacity:0.05"/>
    <stop offset="0.0314" style="stop-color:#252525;stop-opacity:0.05"/>
    <stop offset="0.0801" style="stop-color:#585858;stop-opacity:0.05"/>
    <stop offset="0.1311" style="stop-color:#848484;stop-opacity:0.05"/>
    <stop offset="0.1834" style="stop-color:#AAAAAA;stop-opacity:0.05"/>
    <stop offset="0.2375" style="stop-color:#C9C9C9;stop-opacity:0.05"/>
    <stop offset="0.2939" style="stop-color:#E1E1E1;stop-opacity:0.05"/>
    <stop offset="0.3536" style="stop-color:#F2F2F2;stop-opacity:0.05"/>
    <stop offset="0.4188" style="stop-color:#FCFCFC;stop-opacity:0.05"/>
    <stop offset="0.5" style="stop-color:#FFFFFF;stop-opacity:0.05"/>
    <stop offset="0.5812" style="stop-color:#FCFCFC;stop-opacity:0.05"/>
    <stop offset="0.6464" style="stop-color:#F2F2F2;stop-opacity:0.05"/>
    <stop offset="0.7061" style="stop-color:#E1E1E1;stop-opacity:0.05"/>
    <stop offset="0.7625" style="stop-color:#C9C9C9;stop-opacity:0.05"/>
    <stop offset="0.8166" style="stop-color:#AAAAAA;stop-opacity:0.05"/>
    <stop offset="0.8689" style="stop-color:#848484;stop-opacity:0.05"/>
    <stop offset="0.9199" style="stop-color:#585858;stop-opacity:0.05"/>
    <stop offset="0.9686" style="stop-color:#252525;stop-opacity:0.05"/>
    <stop offset="1" style="stop-color:#000000;stop-opacity:0.05"/>
  </linearGradient>
  <path fill="url(#SVGID_3_)" d="M11.11,33.177c0,0,6.567,0,7.275,0c0.709,0,0.788-0.079,1.392-0.63s1.443-1.732,1.443-2.677&#xD;&#xA;&#x9;&#x9;c0-0.945-0.21-0.998-0.21-1.233c0-0.236,0-19.081,0-19.422s0.21-0.105,0.21-0.918S20.46,6.59,20.407,6.512&#xD;&#xA;&#x9;&#x9;s-0.184-0.026-0.184-0.131s0-0.761,0-0.761c0-0.131,0.21,0.079,0.21-0.21s-0.21-0.079-0.21-0.236c0-0.157,0-2.467,0-2.65&#xD;&#xA;&#x9;&#x9;c0-0.184,0.262,0.026,0.262-0.263s-0.262-0.052-0.262-0.223c0-0.17,0-0.512,0-0.669c0-0.158-0.065-0.158-0.275-0.158&#xD;&#xA;&#x9;&#x9;s-8.864,0-8.864,0h0.053c0,0-8.654,0-8.864,0s-0.275,0-0.275,0.158c0,0.157,0,0.499,0,0.669c0,0.171-0.262-0.065-0.262,0.223&#xD;&#xA;&#x9;&#x9;s0.262,0.079,0.262,0.263c0,0.184,0,2.493,0,2.65c0,0.158-0.21-0.052-0.21,0.236s0.21,0.079,0.21,0.21c0,0,0,0.656,0,0.761&#xD;&#xA;&#x9;&#x9;S1.866,6.433,1.813,6.512S1,7.483,1,8.296s0.21,0.577,0.21,0.918s0,19.186,0,19.422c0,0.235-0.21,0.288-0.21,1.233&#xD;&#xA;&#x9;&#x9;c0,0.944,0.84,2.126,1.443,2.677s0.683,0.63,1.392,0.63C4.543,33.177,11.11,33.177,11.11,33.177z"/>
  <linearGradient id="SVGID_4_" gradientUnits="userSpaceOnUse" x1="11.1104" y1="1.2095" x2="11.1104" y2="32.6777">
    <stop offset="0" style="stop-color:#FFFFFF;stop-opacity:0"/>
    <stop offset="0.1448" style="stop-color:#FFFFFF;stop-opacity:0.05"/>
    <stop offset="0.7929" style="stop-color:#FFFFFF;stop-opacity:0.05"/>
    <stop offset="0.8567" style="stop-color:#FFFFFF;stop-opacity:0.05"/>
    <stop offset="1" style="stop-color:#FFFFFF;stop-opacity:0"/>
  </linearGradient>
  <path fill="url(#SVGID_4_)" d="M3.835,32.677c-0.508,0-0.508,0-1.035-0.481c-0.635-0.58-1.3-1.622-1.3-2.325&#xD;&#xA;&#x9;&#x9;c0-0.534,0.069-0.707,0.12-0.834c0.04-0.1,0.09-0.225,0.09-0.399V9.215c0-0.26-0.08-0.407-0.167-0.526&#xD;&#xA;&#x9;&#x9;C1.532,8.672,1.5,8.594,1.5,8.296c0-0.205,0.084-0.656,0.64-1.387c0.339-0.141,0.357-0.46,0.357-0.529V1.211l17.227-0.001V6.38&#xD;&#xA;&#x9;&#x9;c0,0.069,0.019,0.393,0.359,0.53c0.559,0.757,0.638,1.187,0.638,1.386c0,0.297-0.032,0.375-0.033,0.379&#xD;&#xA;&#x9;&#x9;c-0.097,0.133-0.177,0.279-0.177,0.54v19.422c0,0.175,0.05,0.3,0.09,0.399c0.051,0.127,0.12,0.3,0.12,0.834&#xD;&#xA;&#x9;&#x9;c0,0.703-0.665,1.745-1.28,2.308c-0.547,0.499-0.547,0.499-1.055,0.499H3.835z"/>
  <linearGradient id="SVGID_5_" gradientUnits="userSpaceOnUse" x1="11.1104" y1="1.21" x2="11.1104" y2="33.1777">
    <stop offset="0" style="stop-color:#000000;stop-opacity:0"/>
    <stop offset="0.0211" style="stop-color:#000000;stop-opacity:0.08"/>
    <stop offset="0.0362" style="stop-color:#000000;stop-opacity:0.2"/>
    <stop offset="0.0422" style="stop-color:#000000;stop-opacity:0.0874"/>
    <stop offset="0.0814" style="stop-color:#000000;stop-opacity:0.06"/>
    <stop offset="0.1222" style="stop-color:#000000;stop-opacity:0.1"/>
    <stop offset="0.1327" style="stop-color:#000000;stop-opacity:0.25"/>
    <stop offset="0.1403" style="stop-color:#000000;stop-opacity:0.0819"/>
    <stop offset="0.1719" style="stop-color:#000000;stop-opacity:0.15"/>
    <stop offset="0.3364" style="stop-color:#000000;stop-opacity:0"/>
    <stop offset="0.7858" style="stop-color:#000000;stop-opacity:0.15"/>
    <stop offset="0.9351" style="stop-color:#000000;stop-opacity:0.09"/>
    <stop offset="1" style="stop-color:#000000;stop-opacity:0.2"/>
  </linearGradient>
  <path fill="url(#SVGID_5_)" d="M11.11,33.177c0,0,6.567,0,7.275,0c0.709,0,0.788-0.079,1.392-0.63s1.443-1.732,1.443-2.677&#xD;&#xA;&#x9;&#x9;c0-0.945-0.21-0.998-0.21-1.233c0-0.236,0-19.081,0-19.422s0.21-0.105,0.21-0.918S20.46,6.59,20.407,6.512&#xD;&#xA;&#x9;&#x9;s-0.184-0.026-0.184-0.131s0-0.761,0-0.761c0-0.131,0.21,0.079,0.21-0.21s-0.21-0.079-0.21-0.236c0-0.157,0-2.467,0-2.65&#xD;&#xA;&#x9;&#x9;c0-0.184,0.262,0.026,0.262-0.263s-0.262-0.052-0.262-0.223c0-0.17,0-0.512,0-0.669c0-0.158-0.065-0.158-0.275-0.158&#xD;&#xA;&#x9;&#x9;s-8.864,0-8.864,0h0.053c0,0-8.654,0-8.864,0s-0.275,0-0.275,0.158c0,0.157,0,0.499,0,0.669c0,0.171-0.262-0.065-0.262,0.223&#xD;&#xA;&#x9;&#x9;s0.262,0.079,0.262,0.263c0,0.184,0,2.493,0,2.65c0,0.158-0.21-0.052-0.21,0.236s0.21,0.079,0.21,0.21c0,0,0,0.656,0,0.761&#xD;&#xA;&#x9;&#x9;S1.866,6.433,1.813,6.512S1,7.483,1,8.296s0.21,0.577,0.21,0.918s0,19.186,0,19.422c0,0.235-0.21,0.288-0.21,1.233&#xD;&#xA;&#x9;&#x9;c0,0.944,0.84,2.126,1.443,2.677s0.683,0.63,1.392,0.63C4.543,33.177,11.11,33.177,11.11,33.177z"/>
  <g>
    <linearGradient id="SVGID_6_" gradientUnits="userSpaceOnUse" x1="7.3076" y1="1.2065" x2="7.3076" y2="33.1768">
      <stop offset="0.003" style="stop-color:#FFFFFF;stop-opacity:0.05"/>
      <stop offset="0.0814" style="stop-color:#FFFFFF;stop-opacity:0.1"/>
      <stop offset="0.1373" style="stop-color:#FFFFFF;stop-opacity:0"/>
      <stop offset="0.1417" style="stop-color:#FFFFFF;stop-opacity:0"/>
      <stop offset="0.1689" style="stop-color:#FFFFFF;stop-opacity:0"/>
      <stop offset="0.1916" style="stop-color:#FFFFFF;stop-opacity:0"/>
      <stop offset="0.2776" style="stop-color:#FFFFFF;stop-opacity:0.0221"/>
      <stop offset="0.7768" style="stop-color:#FFFFFF;stop-opacity:0.15"/>
      <stop offset="0.908" style="stop-color:#FFFFFF;stop-opacity:0"/>
      <stop offset="0.9653" style="stop-color:#FFFFFF;stop-opacity:0.1"/>
      <stop offset="1" style="stop-color:#FFFFFF;stop-opacity:0"/>
    </linearGradient>
    <path fill="url(#SVGID_6_)" d="M9.718,33.176h-3.08c-0.43,0-0.479-0.08-0.85-0.63s-0.89-1.729-0.89-2.68&#xD;&#xA;&#x9;&#x9;&#x9;c0-0.94,0.13-0.99,0.13-1.23V9.217c0-0.34-0.13-0.11-0.13-0.92c0-0.81,0.47-1.71,0.5-1.78c0.029-0.08,0.109-0.03,0.109-0.14&#xD;&#xA;&#x9;&#x9;&#x9;c0-0.1,0-0.76,0-0.76c0-0.13-0.13,0.08-0.13-0.21s0.13-0.08,0.13-0.23v-2.65c0-0.19-0.159,0.02-0.159-0.27&#xD;&#xA;&#x9;&#x9;&#x9;c0-0.29,0.159-0.05,0.159-0.22v-0.67c0-0.16,0.04-0.16,0.17-0.16h3.74c-0.04,0-0.05,0-0.05,0.16v0.67c0,0.17-0.05-0.07-0.05,0.22&#xD;&#xA;&#x9;&#x9;&#x9;c0,0.29,0.05,0.08,0.05,0.27v2.65c0,0.15-0.04-0.06-0.04,0.23s0.04,0.08,0.04,0.21c0,0,0,0.66,0,0.76c0,0.11-0.03,0.06-0.04,0.14&#xD;&#xA;&#x9;&#x9;&#x9;c0,0.07-0.15,0.97-0.15,1.78c0,0.81,0.04,0.58,0.04,0.92v19.419c0,0.24-0.04,0.29-0.04,1.23c0,0.95,0.16,2.13,0.271,2.68&#xD;&#xA;&#x9;&#x9;&#x9;C9.568,33.096,9.578,33.176,9.718,33.176z"/>
    <linearGradient id="SVGID_7_" gradientUnits="userSpaceOnUse" x1="14.9082" y1="1.2065" x2="14.9082" y2="33.1768">
      <stop offset="0.003" style="stop-color:#FFFFFF;stop-opacity:0.05"/>
      <stop offset="0.0814" style="stop-color:#FFFFFF;stop-opacity:0.1"/>
      <stop offset="0.1373" style="stop-color:#FFFFFF;stop-opacity:0"/>
      <stop offset="0.1417" style="stop-color:#FFFFFF;stop-opacity:0"/>
      <stop offset="0.1689" style="stop-color:#FFFFFF;stop-opacity:0"/>
      <stop offset="0.1916" style="stop-color:#FFFFFF;stop-opacity:0"/>
      <stop offset="0.2776" style="stop-color:#FFFFFF;stop-opacity:0.0221"/>
      <stop offset="0.7768" style="stop-color:#FFFFFF;stop-opacity:0.15"/>
      <stop offset="0.908" style="stop-color:#FFFFFF;stop-opacity:0"/>
      <stop offset="0.9653" style="stop-color:#FFFFFF;stop-opacity:0.1"/>
      <stop offset="1" style="stop-color:#FFFFFF;stop-opacity:0"/>
    </linearGradient>
    <path fill="url(#SVGID_7_)" d="M17.188,28.636c0,0.24,0.13,0.29,0.13,1.23c0,0.95-0.51,2.13-0.88,2.68s-0.42,0.63-0.86,0.63h-3.08&#xD;&#xA;&#x9;&#x9;&#x9;c0.14,0,0.15-0.08,0.271-0.63c0.119-0.55,0.279-1.729,0.279-2.68c0-0.94-0.05-0.99-0.05-1.23V9.217c0-0.34,0.05-0.11,0.05-0.92&#xD;&#xA;&#x9;&#x9;&#x9;c0-0.81-0.149-1.71-0.16-1.78c-0.01-0.08-0.029-0.03-0.029-0.14c0-0.1,0-0.76,0-0.76c0-0.13,0.04,0.08,0.04-0.21&#xD;&#xA;&#x9;&#x9;&#x9;s-0.04-0.08-0.04-0.23v-2.65c0-0.19,0.05,0.02,0.05-0.27c0-0.29-0.05-0.05-0.05-0.22v-0.67c0-0.16-0.021-0.16-0.061-0.16h3.74&#xD;&#xA;&#x9;&#x9;&#x9;c0.13,0,0.17,0,0.17,0.16v0.67c0,0.17,0.16-0.07,0.16,0.22c0,0.29-0.16,0.08-0.16,0.27v2.65c0,0.15,0.13-0.06,0.13,0.23&#xD;&#xA;&#x9;&#x9;&#x9;s-0.13,0.08-0.13,0.21c0,0,0,0.66,0,0.76c0,0.11,0.08,0.06,0.11,0.14c0.04,0.07,0.5,0.97,0.5,1.78c0,0.81-0.13,0.58-0.13,0.92&#xD;&#xA;&#x9;&#x9;&#x9;V28.636z"/>
  </g>
  <g>
    <linearGradient id="SVGID_8_" gradientUnits="userSpaceOnUse" x1="1.7881" y1="5.8364" x2="1.7881" y2="30.9473">
      <stop offset="0" style="stop-color:#FFFFFF;stop-opacity:0.05"/>
      <stop offset="0.0498" style="stop-color:#FFFFFF;stop-opacity:0.2"/>
      <stop offset="0.9148" style="stop-color:#FFFFFF;stop-opacity:0.109"/>
      <stop offset="1" style="stop-color:#FFFFFF;stop-opacity:0.1"/>
    </linearGradient>
    <path fill="url(#SVGID_8_)" d="M2.408,6.577c-0.06,0.13,0.25,0.61,0,0.84s-1.19,0.39-1.14,0.89c0.04,0.5,0.1,0.71,0.1,0.94v19.4&#xD;&#xA;&#x9;&#x9;&#x9;c0,0.199,0.33,0.369,0.13,0.619c-0.189,0.25-0.45,0.86-0.24,1.461c0.03,0.079,0.04,0.149,0.021,0.22&#xD;&#xA;&#x9;&#x9;&#x9;c-0.17-0.36-0.28-0.74-0.28-1.08c0-0.94,0.21-0.99,0.21-1.23V9.217c0-0.34-0.21-0.11-0.21-0.92c0-0.81,0.76-1.71,0.82-1.78&#xD;&#xA;&#x9;&#x9;&#x9;c0.05-0.08,0.18-0.03,0.18-0.14v-0.54c0.21,0,0.37,0.04,0.41,0.12c0.08,0.14,0.17,0.31,0.17,0.46&#xD;&#xA;&#x9;&#x9;&#x9;C2.578,6.557,2.468,6.457,2.408,6.577z"/>
    <linearGradient id="SVGID_9_" gradientUnits="userSpaceOnUse" x1="20.4307" y1="5.8364" x2="20.4307" y2="30.9473">
      <stop offset="0" style="stop-color:#FFFFFF;stop-opacity:0.05"/>
      <stop offset="0.0498" style="stop-color:#FFFFFF;stop-opacity:0.2"/>
      <stop offset="0.9148" style="stop-color:#FFFFFF;stop-opacity:0.109"/>
      <stop offset="1" style="stop-color:#FFFFFF;stop-opacity:0.1"/>
    </linearGradient>
    <path fill="url(#SVGID_9_)" d="M19.811,6.577c0.06,0.13-0.25,0.61,0,0.84s1.19,0.39,1.14,0.89c-0.04,0.5-0.1,0.71-0.1,0.94v19.4&#xD;&#xA;&#x9;&#x9;&#x9;c0,0.199-0.33,0.369-0.13,0.619c0.189,0.25,0.45,0.86,0.24,1.461c-0.03,0.079-0.04,0.149-0.021,0.22&#xD;&#xA;&#x9;&#x9;&#x9;c0.17-0.36,0.28-0.74,0.28-1.08c0-0.94-0.21-0.99-0.21-1.23V9.217c0-0.34,0.21-0.11,0.21-0.92c0-0.81-0.76-1.71-0.82-1.78&#xD;&#xA;&#x9;&#x9;&#x9;c-0.05-0.08-0.18-0.03-0.18-0.14v-0.54c-0.21,0-0.37,0.04-0.41,0.12c-0.08,0.14-0.17,0.31-0.17,0.46&#xD;&#xA;&#x9;&#x9;&#x9;C19.641,6.557,19.751,6.457,19.811,6.577z"/>
  </g>
  <linearGradient id="SVGID_10_" gradientUnits="userSpaceOnUse" x1="11.1104" y1="1.21" x2="11.1104" y2="33.1777">
    <stop offset="0.0241" style="stop-color:#FFFFFF;stop-opacity:0"/>
    <stop offset="0.0287" style="stop-color:#FFFFFF;stop-opacity:0.35"/>
    <stop offset="0.0362" style="stop-color:#FFFFFF;stop-opacity:0"/>
    <stop offset="0.1237" style="stop-color:#FFFFFF;stop-opacity:0"/>
    <stop offset="0.1282" style="stop-color:#FFFFFF;stop-opacity:0.35"/>
    <stop offset="0.1357" style="stop-color:#FFFFFF;stop-opacity:0"/>
    <stop offset="0.1584" style="stop-color:#FFFFFF;stop-opacity:0"/>
    <stop offset="0.1659" style="stop-color:#FFFFFF;stop-opacity:0.35"/>
    <stop offset="0.2172" style="stop-color:#FFFFFF;stop-opacity:0"/>
    <stop offset="0.2504" style="stop-color:#000000;stop-opacity:0.1"/>
    <stop offset="0.264" style="stop-color:#FFFFFF;stop-opacity:0"/>
    <stop offset="0.8431" style="stop-color:#FFFFFF;stop-opacity:0"/>
    <stop offset="0.8778" style="stop-color:#FFFFFF;stop-opacity:0.25"/>
    <stop offset="0.9231" style="stop-color:#FFFFFF;stop-opacity:0"/>
  </linearGradient>
  <path fill="url(#SVGID_10_)" d="M11.11,33.177c0,0,6.567,0,7.275,0c0.709,0,0.788-0.079,1.392-0.63s1.443-1.732,1.443-2.677&#xD;&#xA;&#x9;&#x9;c0-0.945-0.21-0.998-0.21-1.233c0-0.236,0-19.081,0-19.422s0.21-0.105,0.21-0.918S20.46,6.59,20.407,6.512&#xD;&#xA;&#x9;&#x9;s-0.184-0.026-0.184-0.131s0-0.761,0-0.761c0-0.131,0.21,0.079,0.21-0.21s-0.21-0.079-0.21-0.236c0-0.157,0-2.467,0-2.65&#xD;&#xA;&#x9;&#x9;c0-0.184,0.262,0.026,0.262-0.263s-0.262-0.052-0.262-0.223c0-0.17,0-0.512,0-0.669c0-0.158-0.065-0.158-0.275-0.158&#xD;&#xA;&#x9;&#x9;s-8.864,0-8.864,0h0.053c0,0-8.654,0-8.864,0s-0.275,0-0.275,0.158c0,0.157,0,0.499,0,0.669c0,0.171-0.262-0.065-0.262,0.223&#xD;&#xA;&#x9;&#x9;s0.262,0.079,0.262,0.263c0,0.184,0,2.493,0,2.65c0,0.158-0.21-0.052-0.21,0.236s0.21,0.079,0.21,0.21c0,0,0,0.656,0,0.761&#xD;&#xA;&#x9;&#x9;S1.866,6.433,1.813,6.512S1,7.483,1,8.296s0.21,0.577,0.21,0.918s0,19.186,0,19.422c0,0.235-0.21,0.288-0.21,1.233&#xD;&#xA;&#x9;&#x9;c0,0.944,0.84,2.126,1.443,2.677s0.683,0.63,1.392,0.63C4.543,33.177,11.11,33.177,11.11,33.177z"/>
</svg>