<svg version="1.2" baseProfile="tiny" id="EdgeSVG_76DVz" x="0px" y="0px" width="22.221px" height="34.177px" viewBox="0 0 22.221 34.177" xmlns:xlink="http://www.w3.org/1999/xlink" xmlns="http://www.w3.org/2000/svg">
  <linearGradient id="SVGID_11_" gradientUnits="userSpaceOnUse" x1="0.1309" y1="3.2183" x2="22.0898" y2="3.2183">
    <stop offset="0" style="stop-color:#000000;stop-opacity:0.5"/>
    <stop offset="1" style="stop-color:#000000;stop-opacity:0.5"/>
  </linearGradient>
  <path fill="url(#SVGID_11_)" d="M0.787,5.409c0-0.269,0.076-0.51,0.21-0.702V3.021C0.831,2.819,0.735,2.557,0.735,2.26&#xD;&#xA;&#x9;&#x9;c0-0.295,0.097-0.559,0.262-0.759V1.368c0-0.193,0.062-1.158,1.275-1.158h17.676c1.214,0,1.275,0.964,1.275,1.158v0.141&#xD;&#xA;&#x9;&#x9;c0.167,0.199,0.262,0.459,0.262,0.751c0,0.297-0.096,0.561-0.262,0.762v1.686c0.134,0.192,0.21,0.433,0.21,0.702&#xD;&#xA;&#x9;&#x9;c0,0.237-0.056,0.439-0.149,0.606c0.108,0.143,0.195,0.282,0.285,0.421c0.393-0.244,0.521-0.678,0.521-0.949&#xD;&#xA;&#x9;&#x9;c0-0.255-0.084-0.455-0.158-0.586V1.368C21.932,1.139,21.858,0,20.407,0H1.813C0.362,0,0.289,1.139,0.289,1.368v3.533&#xD;&#xA;&#x9;&#x9;C0.218,5.027,0.131,5.229,0.131,5.488c0,0.271,0.128,0.705,0.521,0.948c0.09-0.14,0.176-0.279,0.284-0.422&#xD;&#xA;&#x9;&#x9;C0.843,5.848,0.787,5.646,0.787,5.409z"/>
</svg>