<svg version="1.2" baseProfile="tiny" viewBox="0 0 18.000 18.000" xmlns:xlink="http://www.w3.org/1999/xlink" xmlns="http://www.w3.org/2000/svg">
<path style="fill:#ffffff;" d="M0,18h17.996C17.998,18,18,17.998,18,17.996V0.004C18,0.002,17.998,0,17.996,0H0.004C0.002,0,0,0.002,0,0.004V18z    M3.293,4.272c0.078-0.115,0.205-0.177,0.334-0.177c0.078,0,0.156,0.022,0.226,0.069l4.923,3.325l5.385-3.333   c0.065-0.041,0.14-0.061,0.212-0.061c0.135,0,0.267,0.068,0.343,0.191c0.117,0.189,0.059,0.438-0.131,0.555L8.986,8.306l-0.001,0   L8.978,8.312C8.963,8.321,8.945,8.322,8.929,8.33C8.898,8.343,8.869,8.358,8.835,8.364c-0.025,0.004-0.05,0-0.076,0   c-0.026,0-0.052,0.002-0.079-0.003c-0.03-0.007-0.058-0.022-0.086-0.036C8.577,8.317,8.558,8.314,8.541,8.303L3.401,4.832   C3.217,4.708,3.168,4.457,3.293,4.272z M3.293,9.806c0.078-0.115,0.205-0.178,0.334-0.178c0.078,0,0.156,0.022,0.226,0.069   l4.923,3.325l5.385-3.333c0.065-0.041,0.14-0.061,0.212-0.061c0.135,0,0.267,0.068,0.343,0.191c0.117,0.189,0.059,0.437-0.131,0.554   L8.986,13.84h0l-0.008,0.005c-0.017,0.011-0.037,0.013-0.055,0.021c-0.028,0.013-0.056,0.027-0.086,0.032   c-0.029,0.006-0.058,0.001-0.087,0c-0.022-0.001-0.044,0.002-0.067-0.003c-0.033-0.007-0.063-0.023-0.093-0.038   c-0.016-0.008-0.034-0.01-0.049-0.021l-5.139-3.471C3.217,10.241,3.168,9.99,3.293,9.806z"/>
</svg>