<svg version="1.2" baseProfile="tiny" viewBox="0 0 18.000 18.000" xmlns:xlink="http://www.w3.org/1999/xlink" xmlns="http://www.w3.org/2000/svg">
<path style="fill:#ffffff;" d="M3.401,4.83c-0.185-0.125-0.233-0.375-0.108-0.56c0.078-0.115,0.205-0.177,0.334-0.177   c0.078,0,0.156,0.022,0.226,0.069l4.923,3.325l5.385-3.333c0.065-0.041,0.14-0.061,0.212-0.061c0.135,0,0.267,0.068,0.343,0.191   c0.117,0.189,0.059,0.438-0.131,0.555L8.986,8.304l0,0L8.978,8.31C8.961,8.32,8.941,8.322,8.923,8.33   C8.895,8.342,8.867,8.357,8.836,8.362c-0.029,0.005-0.058,0.001-0.087,0C8.727,8.361,8.705,8.364,8.682,8.359   C8.649,8.353,8.62,8.336,8.589,8.321c-0.016-0.008-0.034-0.01-0.049-0.02L3.401,4.83z M14.373,9.641   c-0.072,0-0.146,0.02-0.212,0.061l-5.385,3.333L3.853,9.71C3.783,9.664,3.705,9.641,3.627,9.641c-0.129,0-0.256,0.063-0.334,0.177   c-0.125,0.185-0.076,0.436,0.108,0.56l5.139,3.471c0.015,0.011,0.033,0.013,0.049,0.021c0.03,0.015,0.06,0.031,0.093,0.038   c0.022,0.005,0.044,0.002,0.067,0.003c0.029,0.001,0.058,0.005,0.087,0c0.031-0.005,0.058-0.02,0.086-0.032   c0.019-0.008,0.038-0.01,0.055-0.021l0.008-0.005h0l5.599-3.466c0.189-0.117,0.248-0.365,0.131-0.555   C14.64,9.709,14.508,9.641,14.373,9.641z"/>
</svg>