<svg version="1.2" baseProfile="tiny" viewBox="0 0 18.000 18.000" xmlns:xlink="http://www.w3.org/1999/xlink" xmlns="http://www.w3.org/2000/svg">
<path style="fill:#ffffff;" d="M17.283,17.278H18V18h-0.717V17.278z M4.292,8.582v0.836h0.715V8.582H4.292z M4.293,7.153v0.714   h0.714V7.153H4.293z M12.279,0.715h-0.717V1.43h0.717V0.715z M11.562,18h0.718v-0.722h0.715v-0.712h-0.715v-0.714h-0.718V18z    M10.132,8.578h0.717V7.867h-0.717V8.578z M17.283,13.708H18v-1.43h-0.717v0.713V13.708z M16.572,12.278h0.711V11.56h-0.712   L16.572,12.278h-0.714v0.713h0.714V12.278z M3.577,9.423V9.418V8.582H2.86v0.841H3.577z M2.86,10.132H1.43V8.583H0v1.55h1.432v0.716   H2.86V10.132z M1.431,3.572h2.145v-2.14H1.431V3.572z M5.007,12.991V18H0v-5.009h2.856H2.86H5.007z M4.29,13.708H0.716v0.711v2.147   v0.711H4.29V13.708z M12.994,0.649V0H18v5.006h-5.006V0.715V0.649z M13.71,4.292h3.573V3.577V1.43V0.715H13.71V1.43v2.147V4.292z    M14.423,3.577h2.146V1.43h-2.146V3.577z M18,10.842V8.58h-0.717v0.838h-0.712v0.714h0.712v0.71H18z M1.432,10.849H0v0.712h1.432   V10.849z M3.579,14.419H1.432v2.147h2.147V14.419z M0,7.867V0h5.009v5.009H0v0.714h2.146v0.714H1.43v1.43h0.718v-1.43h1.431V5.723   h1.429v0.714H4.292v0.714H3.58v0.715H2.86v0.715H1.432V7.867H0z M0.717,4.293h3.576V0.718H0.717V4.293z M0,7.153h0.714V6.435H0   V7.153z M17.283,15.85H18v0.717h-1.431v-0.715h-1.428l0.001,1.427h0.716V18h-0.717v-0.722H13.71v-0.712h0.715v-0.714H13.71v-0.716   h-0.716v0.716h-0.715v-0.715h-0.718v0.715h-0.713v-2.145h0.713v-2.866h-0.713v0.721h-0.717v-0.721H9.417v1.437H8.581v-0.718H7.867   v0.718h0.713v0.713h1.551v0.717H9.417v1.429h0.715v0.716h0.717v1.426h-0.717v-0.712H9.417v-0.714H8.581v0.714h0.836V18H8.581v-0.719   H6.437V18H5.723v-2.147h0.715v0.714h0.714v-0.714H6.438v-0.716h0.714v-0.716H6.438H5.723v-0.713h1.43v-0.717h-1.43H5.722v-0.713   H2.86v-0.718h0.717v-0.712v-0.717h1.43V9.418h0.716v0.714h0.714v0.71H4.29v0.719h2.147h0.715v-1.429h0.715V7.867V7.863V7.152h-1.43   V6.438H5.723V5.723l0,0V5.042V5.009V2.86h1.429V1.43H5.723V0h0.714v0.733h0.704V0h2.991v0.715H9.417V1.43H8.581V0.718H7.867V1.43   h0.713v1.43H7.867v0.717H7.141H6.437v2.145h0.704V4.293h0.727v0.712h0.713V3.577h0.834h0.002h0.715V2.86H9.417V1.43h0.715V0.715   h0.717V1.43h0.714v0.726h0.717V2.86h-0.718V2.156h-0.713v3.566h-0.717V4.293H9.417v2.144h0.715v1.428H9.417V7.152H8.581v1.43h0.836   v1.55h0.705h0.01h0.717V9.418h0.713V7.867h-0.713V5.722h0.654h0.059h0.718h0.712h0.003h2.145v0.715h0.718v0.715h0.713V6.437V5.722   H18v2.144h-0.717V7.15h-0.712v0.715h-0.715V8.58l-0.719,0.002h-0.011h-0.702v2.26H13.71v-0.71h-0.716V8.578h-0.715v1.554h0.715v0.71   h0.716v0.718h1.428v0.714v0.005v0.713h0.721v0.715h-0.717v0.715h0.717v0.716h1.425V15.85z M13.71,7.867h1.428V7.152V6.437h-0.713   v0.715H13.71V7.867z M12.279,7.152h0.715V6.438h-0.715V7.152z M7.867,14.421v0.716h0.713v-0.716H7.867z M8.583,6.437V5.722H7.867   v0.715H8.583z M14.425,12.284h-0.704H13.71h-0.716h-0.715v2.137h0.68h0.035h0.716h0.715V12.284z M10.849,12.284h-0.717v0.707h0.717   V12.284z M12.994,13.708h0.716v-0.729h-0.716V13.708z M15.138,10.842h1.434v-0.71h-1.434V10.842z M16.567,14.421h0.716v-0.712   h-0.716V14.421z M11.562,5.007h0.718v-1.43h-0.718V5.007z M5.723,9.418h0.714v0.714h0.715V7.867H5.007v0.715h0.716V9.418z"/>
</svg>