<svg version="1.2" baseProfile="tiny" viewBox="0 0 18.000 18.000" xmlns:xlink="http://www.w3.org/1999/xlink" xmlns="http://www.w3.org/2000/svg">
<path style="fill:#ffffff;" d="M13.696,9.003c0,2.584-2.109,4.694-4.694,4.694c-2.586,0-4.695-2.11-4.695-4.694   s2.108-4.694,4.695-4.694C11.587,4.309,13.696,6.419,13.696,9.003z M18,9.003c0,4.959-4.04,8.995-8.998,8.997   C4.04,17.998,0.004,13.963,0,9.003C0.004,4.045,4.04,0.004,9.002,0C13.96,0.004,18,4.045,18,9.003z M16.632,9.003   c-0.01-4.199-3.431-7.625-7.63-7.63c-4.203,0.005-7.626,3.431-7.635,7.63c0.008,4.199,3.432,7.623,7.635,7.629   C13.201,16.626,16.622,13.202,16.632,9.003z"/>
</svg>