<svg version="1.2" baseProfile="tiny" viewBox="0 0 18.000 17.137" xmlns:xlink="http://www.w3.org/1999/xlink" xmlns="http://www.w3.org/2000/svg">
<path style="fill:#ffffff;" d="M8.81,11.57l0.09,4.21l-3.961,0.006c0,0-0.83-0.003-1.462-0.621   c-0.771-0.912-0.421-1.859-0.196-2.299c0.21-0.411,0.634-1.095,0.764-1.305L8.81,11.57z M2.925,12.743   c0.293-0.581,2.164-3.846,2.164-3.846L6.27,9.58L4.142,6.073L0,6.221l1.317,0.633L0.248,8.77c0,0-0.403,0.544-0.004,1.202   c0.458,0.755,2.446,4.029,2.446,4.029S2.563,13.462,2.925,12.743z M9.084,2.498C8.968,2.279,8.588,1.57,8.336,1.182   C8.068,0.769,7.422-0.009,6.247,0.204c-0.852,0.238-1.27,0.956-1.27,0.956L3.003,4.592L6.694,6.62L9.084,2.498z M8.62,0.937   c0.356,0.543,2.248,3.797,2.248,3.797L9.688,5.415l4.1-0.09l1.943-3.66l-1.207,0.824l-1.125-1.884c0,0-0.27-0.621-1.038-0.604   C11.478,0.02,7.647,0.104,7.647,0.104S8.178,0.263,8.62,0.937z M14.531,10.964c0.247,0.01,1.05,0.034,1.513,0.011   c0.491-0.025,1.488-0.195,1.892-1.32c0.219-0.856-0.193-1.576-0.193-1.576L15.757,4.65l-3.603,2.184L14.531,10.964z M16.114,11.343   c-0.649,0.037-4.414,0.049-4.414,0.049l0.001-1.363l-1.973,3.596l2.2,3.513l-0.111-1.457l2.194-0.031c0,0,0.673,0.076,1.042-0.599   c0.426-0.773,2.268-4.133,2.268-4.133S16.918,11.297,16.114,11.343z"/>
</svg>