<svg version="1.2" baseProfile="tiny" viewBox="0 0 18.000 13.026" xmlns:xlink="http://www.w3.org/1999/xlink" xmlns="http://www.w3.org/2000/svg">
<path style="fill:#ffffff;" d="M2.501,0.461v2.782v0.569v0.443c0,0.539-0.639,0.941-0.854,0.952l0.104,7.775H0.75L0.854,5.2   C0.646,5.2,0,4.802,0,4.256V3.813V3.244V0.461c0-0.209,0.084-0.379,0.188-0.379c0.103,0,0.188,0.17,0.188,0.379l0.117,2.403h0.461   l0.11-2.403c0-0.209,0.084-0.379,0.188-0.379s0.188,0.17,0.188,0.379l0.109,2.403h0.469l0.109-2.403   c0-0.209,0.084-0.379,0.188-0.379C2.417,0.082,2.501,0.252,2.501,0.461z M18,12.952l-0.07-6.507h0.004V0   c0,0-1.611,0.028-1.611,1.846c0,1.818,0,4.599,0,4.599h0.879l-0.088,6.507H18z M9.132,1.429c-2.828,0-5.129,2.328-5.129,5.188   s2.301,5.187,5.129,5.187c2.829,0,5.13-2.326,5.13-5.187S11.961,1.429,9.132,1.429z M15.512,6.576c0,3.562-2.857,6.45-6.38,6.45   c-3.523,0-6.379-2.889-6.379-6.45c0-3.563,2.855-6.452,6.379-6.452C12.654,0.124,15.512,3.012,15.512,6.576z M14.803,6.618   c0-3.162-2.543-5.734-5.671-5.734c-3.127,0-5.672,2.572-5.672,5.734c0,3.161,2.545,5.733,5.672,5.733   C12.26,12.351,14.803,9.779,14.803,6.618z"/>
</svg>