<svg version="1.2" baseProfile="tiny" viewBox="0 0 18.000 18.000" xmlns:xlink="http://www.w3.org/1999/xlink" xmlns="http://www.w3.org/2000/svg">
<path style="fill:#ffffff;" d="M17.386,0.158L9.165,8.332c-0.022,0.021-0.03,0.051-0.05,0.074V0.827c0-0.735-0.24-1.04-0.614-0.669   L0.28,8.332C0.093,8.515,0,8.756,0,9c0,0.243,0.059,0.484,0.247,0.668l8.254,8.176c0.374,0.368,0.614,0.063,0.614-0.675V9.641   C9.123,9.649,9.123,9.66,9.131,9.667l8.254,8.176C17.759,18.211,18,17.907,18,17.168V0.827C18,0.092,17.759-0.212,17.386,0.158z"/>
</svg>